<?xml version="1.0" encoding="UTF-8"?>
<svg id="Layer_1" data-name="Layer 1" xmlns="http://www.w3.org/2000/svg" width="1898" height="455" viewBox="133.55 140.27 1898.05 454.63">
  <defs>
    <style>
      .cls-1 {
        fill: #00fff3;
      }

      .cls-2 {
        fill: #fff;
      }
    </style>
  </defs>
  <path class="cls-1" d="M2015.91,383.35c5.99-17.32,10.51-43.32-4.01-65.65-5.9-9.08-13.76-16.06-22.85-20.61-1.01-20.71-5.24-44.27-22.22-59.56-12.22-11-28.47-15.42-44.6-12.14-4.67.95-11.48,3-18.54,7.41-.93-.35-1.85-.67-2.76-.95-.31-21.81-8.93-42.18-24.32-57.44-15.62-15.57-36.34-24.14-58.36-24.14s-42.83,8.61-58.46,24.24c-15.44,15.44-24.05,35.97-24.24,57.82,0,.13,0,.26,0,.4v.5c0,.13,0,.26,0,.4.1,11.37,2.48,22.35,6.88,32.43-2.32,1.03-4.57,2.18-6.74,3.46-9.97-5.88-21.55-9.21-33.77-9.21h-56.66c-13.92,0-26.84,4.28-37.52,11.6-18.85-9.89-43.64-17.29-75.67-17.29-44.87,0-75.54,14.5-95.54,30.07-21.28-15.69-51.2-27.92-92.77-27.92s-77.54,14.78-105.17,42.72c-6.39,6.45-12.1,13.38-17.15,20.78-7.99-14.12-18.77-26.47-32.08-36.46-25.58-19.2-55.92-28.94-90.19-28.94s-63.69,8.31-86.86,24.73c-5.58-3.58-11.51-6.7-17.77-9.32-14.99-6.28-32.84-9.54-54.57-9.96-.43,0-.86-.01-1.29-.01h-91.43c-5.27,0-10.39.63-15.3,1.79-4.92-1.16-10.03-1.79-15.3-1.79h-136.71c-4.08,0-8.07.39-11.95,1.09-3.88-.7-7.87-1.09-11.95-1.09h-151c-7.83,0-15.33,1.36-22.31,3.85-7.02-2.5-14.53-3.85-22.28-3.85h-44.01c-28.11,0-53.18,17.67-62.63,44.15l-38.31,107.36v-85.01c0-36.73-29.77-66.5-66.5-66.5h-38.95c-36.73,0-66.5,29.77-66.5,66.5v186.41c0,36.73,29.77,66.5,66.5,66.5h131.27c1.42,0,2.83-.06,4.23-.15,1.45.1,2.91.15,4.37.15h40.72c17.94,0,34.61-7.19,46.79-19.25,12.17,12.04,28.84,19.25,46.79,19.25h42.24c5.91,0,11.71-.79,17.28-2.29,5.52,1.48,11.32,2.29,17.31,2.29h39.2c14.94,0,28.73-4.93,39.84-13.25,11.1,8.32,24.89,13.25,39.84,13.25h141.26c4.46,0,8.81-.45,13.03-1.28,4.21.84,8.57,1.28,13.03,1.28h38.07c13.83,0,26.67-4.22,37.31-11.45,10.74,7.28,23.64,11.45,37.3,11.45h42.87c11.49,0,22.3-2.91,31.72-8.04,19.9,8.53,42.66,12.85,68.06,12.85s47.95-4.46,67.56-13.28c9.61,5.39,20.68,8.47,32.47,8.47h38.32c12.94,0,25.01-3.71,35.23-10.11,18.37,9,41.35,15.29,69.75,15.29,34.55,0,65.67-10.36,90.63-30.05,20.01,15.57,50.68,30.05,95.53,30.05,31.8,0,56.46-7.29,75.26-17.08,10.76,7.49,23.83,11.89,37.93,11.89h36.3c6.02,0,11.86-.8,17.41-2.3,5.56,1.5,11.39,2.3,17.37,2.3h37.81c6.03,0,11.9-.81,17.5-2.34,5.59,1.52,11.47,2.34,17.53,2.34h36.29c36.73,0,66.5-29.77,66.5-66.5v-36.3l1.51.4c2.8.74,15.01,3.68,31.43,3.68,22.46,0,52.81-5.5,77.72-29.67h0c10.03-9.73,14.84-23.65,12.96-37.5l-.97-7.14c1.63-6.6,2.34-14.36,1.3-23.31ZM1532.07,420.61c-1.32,0-2.91-.3-4.58-.85,1.76-.58,3.37-.88,4.58-.88,1.31,0,2.9.3,4.57.86-1.67.56-3.26.87-4.57.87Z"/>
  <g>
    <g>
      <path d="M210.04,326.8h38.95v152.9h92.32v33.51h-131.27v-186.41Z"/>
      <path class="cls-1" d="M347.81,519.71h-144.27v-199.41h51.95v152.9h92.32v46.51ZM216.54,506.71h118.27v-20.51h-92.32v-152.9h-25.95v173.41Z"/>
    </g>
    <g>
      <path d="M472.21,474.89h-68.67l-12.9,38.32h-40.72l66.52-186.41h44.01l66.01,186.41h-42.24l-12.01-38.32ZM461.33,442.76l-23.27-73.35-24.03,73.35h47.3Z"/>
      <path class="cls-1" d="M535.66,519.71h-56.21l-12.01-38.32h-59.23l-12.9,38.32h-54.61l71.16-199.41h53.19l70.62,199.41ZM488.99,506.71h28.27l-61.41-173.41h-34.83l-61.88,173.41h26.83l12.9-38.32h78.11l12.01,38.32ZM470.21,449.26h-65.15l33.1-101.03,32.05,101.03ZM423,436.26h29.45l-14.49-45.67-14.96,45.67Z"/>
    </g>
    <g>
      <path d="M656.03,326.8v33.01h-55.77v153.4h-39.2v-153.4h-56.02v-33.01h151Z"/>
      <path class="cls-1" d="M606.76,519.71h-52.2v-153.4h-56.02v-46.01h164v46.01h-55.77v153.4ZM567.55,506.71h26.2v-153.4h55.77v-20.01h-138v20.01h56.02v153.4Z"/>
    </g>
    <g>
      <path d="M808.54,431.76h-90.55v47.93h103.2v33.51h-141.26v-186.41h136.71v33.01h-98.64v39.58h90.55v32.38Z"/>
      <path class="cls-1" d="M827.69,519.71h-154.26v-199.41h149.71v46.01h-98.64v26.58h90.55v45.38h-90.55v34.93h103.2v46.51ZM686.43,506.71h128.26v-20.51h-103.2v-60.93h90.55v-19.38h-90.55v-52.58h98.64v-20.01h-123.71v173.41Z"/>
    </g>
    <g>
      <path d="M925.53,440.11h-40.22v73.1h-38.07v-186.41h91.43c13.07.25,23.12,1.86,30.16,4.81,7.04,2.95,13,7.29,17.89,13.03,4.05,4.72,7.25,9.95,9.61,15.68,2.36,5.74,3.54,12.27,3.54,19.6,0,8.85-2.24,17.56-6.7,26.12-4.47,8.56-11.85,14.61-22.13,18.15,8.6,3.46,14.69,8.37,18.27,14.73,3.58,6.37,5.38,16.08,5.38,29.15v12.52c0,8.52.33,14.29,1.01,17.33,1.01,4.81,3.37,8.35,7.08,10.62v4.68h-42.87c-1.18-4.13-2.02-7.46-2.53-9.99-1.01-5.23-1.56-10.58-1.64-16.06l-.25-17.33c-.17-11.89-2.34-19.81-6.51-23.78-4.17-3.96-11.99-5.94-23.46-5.94ZM949.18,406.22c7.76-3.54,11.63-10.54,11.63-20.99,0-11.3-3.75-18.88-11.26-22.76-4.22-2.19-10.54-3.29-18.97-3.29h-45.27v50.08h44.14c8.77,0,15.34-1.01,19.73-3.04Z"/>
      <path class="cls-1" d="M1009.3,519.71h-54.27l-1.35-4.71c-1.22-4.26-2.11-7.8-2.65-10.5-1.09-5.63-1.68-11.41-1.77-17.24l-.25-17.33c-.19-13.14-2.89-17.64-4.49-19.16-1.64-1.55-6.28-4.16-18.98-4.16h-33.72v73.1h-51.07v-199.41h98.06c14.02.27,24.67,2.01,32.55,5.31,7.96,3.34,14.8,8.32,20.33,14.8,4.47,5.22,8.06,11.08,10.68,17.42,2.67,6.5,4.03,13.93,4.03,22.08,0,9.87-2.5,19.67-7.44,29.12-3.3,6.32-7.96,11.5-13.92,15.49,4.22,3.17,7.55,6.91,9.96,11.19,4.18,7.43,6.21,18.01,6.21,32.34v12.52c0,10.5.54,14.48.86,15.91.86,4.08,2.77,5.66,4.13,6.5l3.1,1.9v14.82ZM964.89,506.71h27.27c-1.28-2.2-2.22-4.69-2.8-7.46-.78-3.5-1.15-9.45-1.15-18.66v-12.52c0-11.87-1.53-20.61-4.54-25.96-2.86-5.08-7.78-8.97-15.03-11.89l-16.17-6.5,16.48-5.67c8.73-3.01,14.78-7.92,18.49-15.01,3.96-7.58,5.96-15.35,5.96-23.11,0-6.44-1.03-12.21-3.05-17.13-2.09-5.06-4.96-9.75-8.54-13.93-4.21-4.93-9.41-8.72-15.47-11.26-6.24-2.61-15.56-4.06-27.71-4.3h-84.87v173.41h25.07v-73.1h46.72c13.32,0,22.46,2.53,27.93,7.73,5.55,5.27,8.34,14.56,8.54,28.4l.25,17.32c.08,5.06.59,10.08,1.53,14.92.26,1.31.63,2.89,1.11,4.73ZM929.45,415.75h-50.64v-63.08h51.77c9.58,0,16.76,1.32,21.97,4.02,6.73,3.48,14.76,11.26,14.76,28.53s-8.39,23.68-15.42,26.9c-5.3,2.44-12.64,3.63-22.44,3.63ZM891.81,402.75h37.64c9.69,0,14.6-1.33,17.01-2.44h.02c3.36-1.55,7.83-4.78,7.83-15.09,0-11.64-4.42-15.27-7.74-16.99-2.26-1.17-6.85-2.56-15.98-2.56h-38.77v37.08Z"/>
    </g>
    <g>
      <path d="M1101.06,486.27c9.19,0,16.65-1.01,22.38-3.04,10.88-3.88,16.31-11.08,16.31-21.62,0-6.15-2.7-10.92-8.09-14.29-5.4-3.29-13.87-6.2-25.42-8.73l-19.73-4.43c-19.39-4.38-32.8-9.15-40.22-14.29-12.56-8.6-18.84-22.05-18.84-40.34,0-16.69,6.07-30.56,18.21-41.61,12.14-11.04,29.97-16.57,53.49-16.57,19.64,0,36.4,5.21,50.27,15.62,13.87,10.41,21.14,25.53,21.82,45.34h-37.43c-.68-11.21-5.56-19.18-14.67-23.9-6.07-3.12-13.62-4.68-22.64-4.68-10.03,0-18.04,2.02-24.03,6.07-5.99,4.05-8.98,9.7-8.98,16.95,0,6.66,2.95,11.63,8.85,14.92,3.79,2.19,11.89,4.76,24.28,7.71l32.12,7.71c14.08,3.37,24.7,7.88,31.87,13.53,11.13,8.77,16.69,21.46,16.69,38.07s-6.51,31.17-19.54,42.43c-13.03,11.25-31.43,16.88-55.2,16.88s-43.38-5.54-57.29-16.63c-13.91-11.09-20.87-26.32-20.87-45.72h37.18c1.18,8.52,3.5,14.88,6.96,19.1,6.32,7.67,17.16,11.51,32.5,11.51Z"/>
      <path class="cls-1" d="M1102.58,524.51c-25.68,0-46.31-6.07-61.34-18.05-15.47-12.33-23.31-29.42-23.31-50.8v-6.5h49.34l.78,5.61c1.01,7.27,2.87,12.61,5.54,15.86,4.99,6.06,14.24,9.13,27.48,9.13,8.41,0,15.21-.9,20.22-2.67,8.28-2.95,11.98-7.73,11.98-15.5,0-3.89-1.55-6.6-5.04-8.78-4.69-2.86-12.57-5.52-23.36-7.89l-19.76-4.43c-20.41-4.61-34.31-9.61-42.5-15.29-14.35-9.82-21.64-25.2-21.64-45.68,0-18.52,6.84-34.14,20.34-46.41,13.32-12.12,32.79-18.26,57.87-18.26,20.99,0,39.22,5.69,54.17,16.92,15.45,11.6,23.67,28.53,24.41,50.31l.23,6.72h-50.28l-.37-6.11c-.54-8.96-4.09-14.85-11.17-18.52-5.09-2.62-11.71-3.95-19.65-3.95-8.67,0-15.52,1.67-20.39,4.96-4.18,2.82-6.12,6.5-6.12,11.56,0,4.33,1.65,7.09,5.52,9.24l.09.05c1.82,1.05,7.16,3.36,22.53,7.02l32.13,7.72c15.14,3.63,26.39,8.45,34.37,14.75,12.72,10.02,19.17,24.55,19.17,43.17s-7.33,34.85-21.79,47.35c-14.18,12.25-34.18,18.46-59.45,18.46ZM1031.22,462.16c1.35,14.31,7.31,25.52,18.12,34.13,12.67,10.09,30.58,15.21,53.24,15.21s39.2-5.15,50.95-15.3c11.63-10.05,17.29-22.32,17.29-37.51s-4.65-25.42-14.22-32.96c-6.39-5.04-16.27-9.18-29.36-12.32l-32.13-7.72c-13.26-3.16-21.52-5.82-25.97-8.38-7.95-4.44-12.15-11.56-12.15-20.58s4.09-17.1,11.84-22.33c7.05-4.77,16.36-7.18,27.67-7.18,10.02,0,18.63,1.82,25.61,5.4,9.34,4.85,15.27,12.79,17.4,23.18h24.72c-1.82-14.54-7.97-25.58-18.7-33.64-12.65-9.5-28.25-14.32-46.37-14.32-21.74,0-38.27,5-49.12,14.88-10.82,9.85-16.08,21.88-16.08,36.8,0,16.16,5.24,27.6,16.01,34.98,6.73,4.67,19.5,9.14,37.98,13.31l19.72,4.42c12.34,2.7,21.3,5.82,27.38,9.52,7.36,4.6,11.21,11.45,11.21,19.84,0,13.34-7.13,22.94-20.63,27.75-6.51,2.3-14.54,3.41-24.57,3.41-17.31,0-29.93-4.67-37.52-13.87-3.42-4.17-5.86-9.67-7.39-16.73h-24.93Z"/>
    </g>
    <g>
      <path d="M1202.61,475.52h38.32v37.69h-38.32v-37.69Z"/>
      <path class="cls-1" d="M1247.43,519.71h-51.32v-50.69h51.32v50.69ZM1209.11,506.71h25.32v-24.69h-25.32v24.69Z"/>
    </g>
    <g>
      <path d="M1399.28,499.29c-13.91,12.73-31.7,19.1-53.37,19.1-26.81,0-47.89-8.6-63.23-25.8-15.35-17.28-23.02-40.97-23.02-71.07,0-32.54,8.73-57.62,26.18-75.25,15.18-15.34,34.48-23.02,57.92-23.02,31.36,0,54.29,10.29,68.8,30.86,8.01,11.55,12.31,23.14,12.9,34.78h-38.95c-2.53-8.94-5.78-15.68-9.74-20.23-7.08-8.09-17.58-12.14-31.49-12.14s-25.34,5.71-33.51,17.14c-8.18,11.42-12.27,27.59-12.27,48.5s4.32,36.57,12.96,46.98c8.64,10.41,19.62,15.62,32.94,15.62s24.07-4.47,31.24-13.4c3.96-4.81,7.25-12.01,9.86-21.63h38.57c-3.37,20.32-11.97,36.84-25.8,49.57Z"/>
      <path class="cls-1" d="M1345.91,524.89c-28.62,0-51.52-9.41-68.08-27.97-16.37-18.44-24.67-43.8-24.67-75.4,0-34.16,9.44-61.02,28.06-79.82,16.37-16.55,37.41-24.94,62.54-24.94,33.45,0,58.39,11.31,74.11,33.61,8.7,12.55,13.43,25.39,14.08,38.19l.35,6.83h-50.7l-1.34-4.73c-2.25-7.97-5.08-13.93-8.39-17.74-5.83-6.66-14.53-9.91-26.59-9.91s-21.28,4.72-28.23,14.42c-7.33,10.25-11.05,25.29-11.05,44.72s3.86,33.67,11.46,42.83c7.41,8.93,16.55,13.27,27.94,13.27s20.25-3.59,26.17-10.97c3.41-4.14,6.31-10.6,8.66-19.26l1.3-4.79h51.21l-1.26,7.56c-3.6,21.69-12.96,39.62-27.81,53.29h-.01c-15.08,13.82-34.51,20.81-57.76,20.81ZM1343.76,329.76c-21.83,0-39.27,6.9-53.3,21.09-16.12,16.28-24.3,40.06-24.3,70.67,0,28.32,7.19,50.78,21.38,66.76,14.17,15.89,33.27,23.61,58.37,23.61,20.17,0,36.19-5.69,48.97-17.39,10.92-10.06,18.37-22.91,22.22-38.29h-25.74c-2.63,8.23-5.83,14.56-9.7,19.26-8.37,10.44-20.59,15.77-36.25,15.77s-28.05-6.04-37.95-17.97c-9.6-11.56-14.46-28.76-14.46-51.13s4.54-39.79,13.48-52.28c9.43-13.17,22.48-19.85,38.8-19.85s28.04,4.83,36.38,14.36c3.88,4.46,7.05,10.38,9.64,18.01h26.83c-1.58-8.15-5.23-16.38-10.91-24.58-13.3-18.87-34.07-28.06-63.46-28.06Z"/>
    </g>
    <g>
      <path d="M1532.07,518.39c-26.64,0-47-7.25-61.08-21.75-18.89-17.79-28.33-43.42-28.33-76.89s9.44-59.77,28.33-76.89c14.08-14.5,34.44-21.75,61.08-21.75s47,7.25,61.08,21.75c18.8,17.12,28.2,42.74,28.2,76.89s-9.4,59.1-28.2,76.89c-14.08,14.5-34.44,21.75-61.08,21.75ZM1568.87,468.31c9.02-11.38,13.53-27.57,13.53-48.56s-4.53-37.07-13.59-48.5c-9.06-11.42-21.31-17.14-36.74-17.14s-27.74,5.69-36.93,17.07c-9.19,11.38-13.79,27.57-13.79,48.56s4.59,37.18,13.79,48.56c9.19,11.38,21.5,17.07,36.93,17.07s27.7-5.69,36.8-17.07Z"/>
      <path class="cls-1" d="M1532.07,524.89c-28.28,0-50.37-7.95-65.64-23.62-20.08-18.98-30.27-46.41-30.27-81.52s10.2-63.25,30.31-81.57c15.28-15.64,37.35-23.58,65.6-23.58s50.32,7.93,65.6,23.58c20.03,18.32,30.18,45.76,30.18,81.56s-10.14,62.54-30.14,81.52c-15.28,15.67-37.37,23.62-65.65,23.62ZM1532.07,327.61c-24.69,0-43.68,6.66-56.42,19.78l-.3.29c-17.38,15.75-26.19,40-26.19,72.07s8.84,55.73,26.28,72.16l.21.2c12.74,13.12,31.72,19.78,56.42,19.78s43.67-6.66,56.42-19.78l.2-.19c17.36-16.43,26.17-40.71,26.17-72.17s-8.77-56.33-26.08-72.08l-.29-.28c-12.75-13.12-31.73-19.78-56.42-19.78ZM1532.07,491.88c-17.42,0-31.54-6.56-41.99-19.49-10.1-12.51-15.23-30.23-15.23-52.65s5.12-40.13,15.23-52.65c10.44-12.93,24.56-19.49,41.98-19.49s31.51,6.59,41.83,19.6c9.96,12.55,15,30.23,15,52.54s-5.03,40.09-14.94,52.6l-.02.02c-10.36,12.95-24.45,19.51-41.88,19.51ZM1532.07,360.61c-13.48,0-23.91,4.79-31.87,14.66-8.19,10.14-12.34,25.11-12.34,44.48s4.15,34.34,12.34,44.48c7.96,9.86,18.39,14.66,31.87,14.66s23.84-4.78,31.72-14.62c8.04-10.15,12.12-25.13,12.12-44.51s-4.1-34.26-12.19-44.46c-7.84-9.87-18.19-14.67-31.65-14.67Z"/>
    </g>
    <g>
      <path d="M1681.56,513.21h-36.3v-186.41h56.66l33.89,146.57,33.64-146.57h56.02v186.41h-36.29v-126.09c0-3.62.04-8.7.13-15.24.08-6.53.13-11.57.13-15.11l-35.28,156.44h-37.81l-35.03-156.44c0,3.54.04,8.58.13,15.11.08,6.53.13,11.62.13,15.24v126.09Z"/>
      <path class="cls-1" d="M1831.97,519.71h-49.29v-103.46l-23.33,103.46h-48.22l-23.07-103.04v103.04h-49.3v-199.41h36.04v-22.3l4.99,22.3h27.29l28.7,124.12,28.49-124.12h26.72l4.94-21.89v21.89h36.04v199.41ZM1795.68,506.71h23.29v-173.41h-23.04v23.47c0,3.53-.04,8.5-.13,15.2-.08,6.4-.13,11.5-.13,15.16v119.59ZM1721.54,506.71h27.41l39.11-173.41h-13.43l-38.79,169.03-39.08-169.03h-14.04l38.83,173.41ZM1651.76,506.71h23.3v-119.59c0-3.47-.04-8.43-.13-15.16-.08-6.43-.13-11.54-.13-15.2v-23.47h-23.04v173.41Z"/>
    </g>
  </g>
  <path d="M1825.47,274.3h-56.02c-12.72,0-24.56,4.57-33.77,12.3-9.21-7.73-21.05-12.3-33.77-12.3h-56.66c-13.99,0-26.7,5.49-36.11,14.41-21.19-13.35-47-20.1-77.08-20.1-39.34,0-71.38,11.53-95.32,34.29-19.49-17.31-49.02-32.14-92.99-32.14-37.34,0-70.27,13.35-95.23,38.58-12.35,12.47-21.95,26.97-28.78,43.4-7.55-28.7-24.34-46.88-38.79-57.73-23.1-17.34-50.62-26.13-81.79-26.13-35.6,0-64.68,9.48-86.5,28.18-7.11-5.63-14.97-10.27-23.54-13.86-13.33-5.59-29.5-8.49-49.43-8.88-.34,0-.68,0-1.02,0h-91.43c-5.32,0-10.46.8-15.3,2.27-4.84-1.47-9.98-2.27-15.3-2.27h-136.71c-4.11,0-8.11.49-11.95,1.38-3.84-.89-7.84-1.38-11.95-1.38h-151c-7.98,0-15.53,1.79-22.3,4.97-6.83-3.2-14.4-4.97-22.28-4.97h-44.01c-22.19,0-41.99,13.95-49.45,34.86l-42.12,118.04h-23.38v-100.4c0-29-23.5-52.5-52.5-52.5h-38.95c-29,0-52.5,23.5-52.5,52.5v186.41c0,29,23.5,52.5,52.5,52.5h131.27c1.47,0,2.91-.08,4.35-.19,1.41.11,2.83.19,4.25.19h40.72c19.96,0,37.94-11.28,46.79-28.69,8.84,17.38,26.81,28.69,46.79,28.69h42.24c5.96,0,11.78-1.03,17.26-2.94,5.43,1.9,11.26,2.94,17.33,2.94h39.2c15.94,0,30.21-7.11,39.84-18.33,9.63,11.21,23.9,18.33,39.84,18.33h141.26c4.5,0,8.86-.57,13.03-1.63,4.17,1.06,8.53,1.63,13.03,1.63h38.07c14.59,0,27.79-5.95,37.31-15.56,9.63,9.72,22.93,15.56,37.31,15.56h42.87c11.49,0,22.1-3.7,30.74-9.96,19.63,9.79,42.73,14.76,69.04,14.76s49.23-5.14,68.51-15.32c8.78,6.6,19.69,10.52,31.52,10.52h38.32c13.01,0,24.9-4.74,34.07-12.58,20.44,11.7,44.4,17.76,70.9,17.76,34.61,0,65.32-11.37,88.81-32.87.04-.04.08-.07.11-.11.56-.52,1.09-1.05,1.64-1.57,23.97,22.93,56.1,34.55,95.59,34.55,29.93,0,55.63-6.68,76.76-19.9,9.44,9.11,22.28,14.72,36.43,14.72h36.3c6.1,0,11.96-1.04,17.4-2.95,5.47,1.92,11.32,2.95,17.38,2.95h37.81c6.1,0,12-1.05,17.5-3,5.48,1.94,11.38,3,17.53,3h36.29c29,0,52.5-23.5,52.5-52.5v-186.41c0-29-23.5-52.5-52.5-52.5Z"/>
  <g>
    <path class="cls-2" d="M210.04,326.8h38.95v152.9h92.32v33.51h-131.27v-186.41Z"/>
    <path class="cls-2" d="M472.21,474.89h-68.67l-12.9,38.32h-40.72l66.52-186.41h44.01l66.01,186.41h-42.24l-12.01-38.32ZM461.33,442.76l-23.27-73.35-24.03,73.35h47.3Z"/>
    <path class="cls-2" d="M656.03,326.8v33.01h-55.77v153.4h-39.2v-153.4h-56.02v-33.01h151Z"/>
    <path class="cls-2" d="M808.54,431.76h-90.55v47.93h103.2v33.51h-141.26v-186.41h136.71v33.01h-98.64v39.58h90.55v32.38Z"/>
    <path class="cls-2" d="M925.53,440.11h-40.22v73.1h-38.07v-186.41h91.43c13.07.25,23.12,1.86,30.16,4.81,7.04,2.95,13,7.29,17.89,13.03,4.05,4.72,7.25,9.95,9.61,15.68,2.36,5.74,3.54,12.27,3.54,19.6,0,8.85-2.24,17.56-6.7,26.12-4.47,8.56-11.85,14.61-22.13,18.15,8.6,3.46,14.69,8.37,18.27,14.73,3.58,6.37,5.38,16.08,5.38,29.15v12.52c0,8.52.33,14.29,1.01,17.33,1.01,4.81,3.37,8.35,7.08,10.62v4.68h-42.87c-1.18-4.13-2.02-7.46-2.53-9.99-1.01-5.23-1.56-10.58-1.64-16.06l-.25-17.33c-.17-11.89-2.34-19.81-6.51-23.78-4.17-3.96-11.99-5.94-23.46-5.94ZM949.18,406.22c7.76-3.54,11.63-10.54,11.63-20.99,0-11.3-3.75-18.88-11.26-22.76-4.22-2.19-10.54-3.29-18.97-3.29h-45.27v50.08h44.14c8.77,0,15.34-1.01,19.73-3.04Z"/>
    <path class="cls-2" d="M1101.06,486.27c9.19,0,16.65-1.01,22.38-3.04,10.88-3.88,16.31-11.08,16.31-21.62,0-6.15-2.7-10.92-8.09-14.29-5.4-3.29-13.87-6.2-25.42-8.73l-19.73-4.43c-19.39-4.38-32.8-9.15-40.22-14.29-12.56-8.6-18.84-22.05-18.84-40.34,0-16.69,6.07-30.56,18.21-41.61,12.14-11.04,29.97-16.57,53.49-16.57,19.64,0,36.4,5.21,50.27,15.62,13.87,10.41,21.14,25.53,21.82,45.34h-37.43c-.68-11.21-5.56-19.18-14.67-23.9-6.07-3.12-13.62-4.68-22.64-4.68-10.03,0-18.04,2.02-24.03,6.07-5.99,4.05-8.98,9.7-8.98,16.95,0,6.66,2.95,11.63,8.85,14.92,3.79,2.19,11.89,4.76,24.28,7.71l32.12,7.71c14.08,3.37,24.7,7.88,31.87,13.53,11.13,8.77,16.69,21.46,16.69,38.07s-6.51,31.17-19.54,42.43c-13.03,11.25-31.43,16.88-55.2,16.88s-43.38-5.54-57.29-16.63c-13.91-11.09-20.87-26.32-20.87-45.72h37.18c1.18,8.52,3.5,14.88,6.96,19.1,6.32,7.67,17.16,11.51,32.5,11.51Z"/>
    <path class="cls-2" d="M1202.61,475.52h38.32v37.69h-38.32v-37.69Z"/>
    <path class="cls-2" d="M1399.28,499.29c-13.91,12.73-31.7,19.1-53.37,19.1-26.81,0-47.89-8.6-63.23-25.8-15.35-17.28-23.02-40.97-23.02-71.07,0-32.54,8.73-57.62,26.18-75.25,15.18-15.34,34.48-23.02,57.92-23.02,31.36,0,54.29,10.29,68.8,30.86,8.01,11.55,12.31,23.14,12.9,34.78h-38.95c-2.53-8.94-5.78-15.68-9.74-20.23-7.08-8.09-17.58-12.14-31.49-12.14s-25.34,5.71-33.51,17.14c-8.18,11.42-12.27,27.59-12.27,48.5s4.32,36.57,12.96,46.98c8.64,10.41,19.62,15.62,32.94,15.62s24.07-4.47,31.24-13.4c3.96-4.81,7.25-12.01,9.86-21.63h38.57c-3.37,20.32-11.97,36.84-25.8,49.57Z"/>
    <path class="cls-2" d="M1532.07,518.39c-26.64,0-47-7.25-61.08-21.75-18.89-17.79-28.33-43.42-28.33-76.89s9.44-59.77,28.33-76.89c14.08-14.5,34.44-21.75,61.08-21.75s47,7.25,61.08,21.75c18.8,17.12,28.2,42.74,28.2,76.89s-9.4,59.1-28.2,76.89c-14.08,14.5-34.44,21.75-61.08,21.75ZM1568.87,468.31c9.02-11.38,13.53-27.57,13.53-48.56s-4.53-37.07-13.59-48.5c-9.06-11.42-21.31-17.14-36.74-17.14s-27.74,5.69-36.93,17.07c-9.19,11.38-13.79,27.57-13.79,48.56s4.59,37.18,13.79,48.56c9.19,11.38,21.5,17.07,36.93,17.07s27.7-5.69,36.8-17.07Z"/>
    <path class="cls-2" d="M1681.56,513.2h-36.3v-186.41h56.66l33.89,146.57,33.64-146.57h56.02v186.41h-36.29v-126.09c0-3.62.04-8.7.13-15.24.08-6.53.13-11.57.13-15.11l-35.28,156.44h-37.81l-35.03-156.44c0,3.54.04,8.58.13,15.11.08,6.53.13,11.62.13,15.24v126.09Z"/>
  </g>
  <path class="cls-2" d="M1855.94,232.71c-.08-9.55-3.69-19.1-11.06-26.39-7.12-7.12-16.59-11.06-26.64-11.06s-19.52,3.94-26.64,11.06c-7.29,7.29-10.97,16.84-11.06,26.39v.5c.08,9.55,3.69,19.1,11.06,26.39,7.12,7.12,16.59,11.06,26.64,11.06s19.52-3.94,26.64-11.06c7.29-7.29,10.97-16.84,11.06-26.39v-.5ZM1843.29,255.16c-2.26-2.01-4.69-3.69-7.29-5.11,1.17-4.52,1.93-9.63,2.09-15h13.57c-.42,7.2-3.27,14.33-8.38,20.11ZM1784.82,235.05h13.57c.17,5.45.92,10.47,2.09,15-2.6,1.34-5.03,3.1-7.29,5.11-5.11-5.78-7.96-12.9-8.38-20.11ZM1793.2,210.76c2.26,2.01,4.69,3.69,7.29,5.11-1.26,4.52-1.93,9.55-2.09,15h-13.57c.42-7.2,3.27-14.33,8.38-20.11ZM1816.15,216.04c-3.6-.25-7.2-1.01-10.64-2.43,2.51-7.37,6.28-12.57,10.64-13.82v16.25ZM1816.15,220.23v10.64h-13.57c.17-4.69.75-9.22,1.76-13.24,3.77,1.51,7.79,2.35,11.81,2.6ZM1816.15,235.05v10.64c-4.02.25-8.04,1.09-11.81,2.6-1.01-4.02-1.59-8.55-1.76-13.24h13.57ZM1816.15,249.88v16.25c-4.36-1.26-8.13-6.53-10.64-13.82,3.43-1.42,7.04-2.18,10.64-2.43ZM1820.34,249.88c3.6.25,7.2,1.01,10.64,2.43-2.51,7.37-6.28,12.57-10.64,13.82v-16.25ZM1820.34,245.69v-10.64h13.57c-.17,4.69-.75,9.22-1.76,13.24-3.77-1.51-7.79-2.35-11.81-2.6ZM1820.34,230.87v-10.64c4.02-.25,8.04-1.09,11.81-2.6,1.01,4.02,1.59,8.55,1.76,13.24h-13.57ZM1820.34,216.04v-16.25c4.36,1.26,8.13,6.53,10.64,13.82-3.43,1.42-7.04,2.18-10.64,2.43ZM1829.14,201.29c4.1,1.42,7.87,3.6,11.23,6.53-1.76,1.51-3.6,2.85-5.53,3.94-1.51-4.19-3.43-7.79-5.7-10.47ZM1801.74,211.76c-1.93-1.09-3.85-2.43-5.53-3.94,3.35-2.93,7.12-5.11,11.23-6.53-2.35,2.68-4.27,6.28-5.7,10.47ZM1801.74,254.16c1.51,4.19,3.43,7.71,5.61,10.47-4.1-1.42-7.87-3.6-11.23-6.53,1.76-1.51,3.6-2.85,5.61-3.94ZM1834.75,254.16c1.93,1.09,3.85,2.43,5.53,3.94-3.35,2.93-7.12,5.11-11.23,6.53,2.35-2.68,4.27-6.28,5.7-10.47ZM1838.1,230.87c-.17-5.45-.84-10.47-2.09-15,2.6-1.34,5.03-3.1,7.29-5.11,5.11,5.78,7.87,12.9,8.38,20.11h-13.57Z"/>
  <path d="M1818.25,303.16c-18.7,0-36.29-7.28-49.55-20.5-13.15-13.03-20.49-30.49-20.65-49.16,0-.1,0-.19,0-.29v-.5c0-.1,0-.19,0-.29.16-18.55,7.47-35.98,20.58-49.08,13.27-13.27,30.89-20.58,49.62-20.58s36.29,7.28,49.56,20.51c13.15,13.03,20.48,30.49,20.64,49.15,0,.09,0,.19,0,.28v.5c0,.09,0,.19,0,.28-.16,18.55-7.47,35.98-20.58,49.09-13.27,13.27-30.89,20.58-49.62,20.58Z"/>
  <path class="cls-2" d="M1855.94,232.71c-.08-9.55-3.69-19.1-11.06-26.39-7.12-7.12-16.59-11.06-26.64-11.06s-19.52,3.94-26.64,11.06c-7.29,7.29-10.97,16.84-11.06,26.39v.5c.08,9.55,3.69,19.1,11.06,26.39,7.12,7.12,16.59,11.06,26.64,11.06s19.52-3.94,26.64-11.06c7.29-7.29,10.97-16.84,11.06-26.39v-.5ZM1843.29,255.16c-2.26-2.01-4.69-3.69-7.29-5.11,1.17-4.52,1.93-9.63,2.09-15h13.57c-.42,7.2-3.27,14.33-8.38,20.11ZM1784.82,235.05h13.57c.17,5.45.92,10.47,2.09,15-2.6,1.34-5.03,3.1-7.29,5.11-5.11-5.78-7.96-12.9-8.38-20.11ZM1793.2,210.76c2.26,2.01,4.69,3.69,7.29,5.11-1.26,4.52-1.93,9.55-2.09,15h-13.57c.42-7.2,3.27-14.33,8.38-20.11ZM1816.15,216.04c-3.6-.25-7.2-1.01-10.64-2.43,2.51-7.37,6.28-12.57,10.64-13.82v16.25ZM1816.15,220.23v10.64h-13.57c.17-4.69.75-9.22,1.76-13.24,3.77,1.51,7.79,2.35,11.81,2.6ZM1816.15,235.05v10.64c-4.02.25-8.04,1.09-11.81,2.6-1.01-4.02-1.59-8.55-1.76-13.24h13.57ZM1816.15,249.88v16.25c-4.36-1.26-8.13-6.53-10.64-13.82,3.43-1.42,7.04-2.18,10.64-2.43ZM1820.34,249.88c3.6.25,7.2,1.01,10.64,2.43-2.51,7.37-6.28,12.57-10.64,13.82v-16.25ZM1820.34,245.69v-10.64h13.57c-.17,4.69-.75,9.22-1.76,13.24-3.77-1.51-7.79-2.35-11.81-2.6ZM1820.34,230.87v-10.64c4.02-.25,8.04-1.09,11.81-2.6,1.01,4.02,1.59,8.55,1.76,13.24h-13.57ZM1820.34,216.04v-16.25c4.36,1.26,8.13,6.53,10.64,13.82-3.43,1.42-7.04,2.18-10.64,2.43ZM1829.14,201.29c4.1,1.42,7.87,3.6,11.23,6.53-1.76,1.51-3.6,2.85-5.53,3.94-1.51-4.19-3.43-7.79-5.7-10.47ZM1801.74,211.76c-1.93-1.09-3.85-2.43-5.53-3.94,3.35-2.93,7.12-5.11,11.23-6.53-2.35,2.68-4.27,6.28-5.7,10.47ZM1801.74,254.16c1.51,4.19,3.43,7.71,5.61,10.47-4.1-1.42-7.87-3.6-11.23-6.53,1.76-1.51,3.6-2.85,5.61-3.94ZM1834.75,254.16c1.93,1.09,3.85,2.43,5.53,3.94-3.35,2.93-7.12,5.11-11.23,6.53,2.35-2.68,4.27-6.28,5.7-10.47ZM1838.1,230.87c-.17-5.45-.84-10.47-2.09-15,2.6-1.34,5.03-3.1,7.29-5.11,5.11,5.78,7.87,12.9,8.38,20.11h-13.57Z"/>
  <g>
    <path d="M1873.09,360.48c-5.79,14.56,29.08,53.81,29.08,53.81l2.51,20.46s40.77,10.73,67.31-15.02l-2.54-18.7c2.44-2.83,4.94-9.04.54-21.94,0,0,13.14-24.94,5.03-37.4-8.11-12.47-23.9-3.84-23.9-3.84,0,0-2.45-3.68-6.82-4.48,0,0,6.59-68.9-13.29-64.85-19.89,4.04-12.53,54.39-12.53,54.39,0,0-22.67-53.15-33.23-49.06-10.55,4.1-12.09,16.63,10.87,73.15,0,0-17.23-1.07-23.02,13.48Z"/>
    <path class="cls-1" d="M1924.87,443.51c-12.16,0-21.04-2.26-21.84-2.47l-4.26-1.12-2.8-22.86c-2.81-3.27-9.51-11.29-15.86-20.53-12.25-17.82-16.4-30.04-13.05-38.45,4.26-10.71,12.99-14.93,19.86-16.58-14.45-36.6-18.19-54.45-13.81-64.6,1.83-4.23,5.12-7.3,9.79-9.11,10.29-3.98,19.61,9.57,28.17,25.1,1.62-18.22,7.88-28.56,18.64-30.75,4.43-.9,8.7.26,12.04,3.27,8.56,7.7,9.84,26.69,10.06,40.31.15,9.46-.31,18.27-.67,23.46.52.32,1,.66,1.45,1,1.85-.63,4.13-1.24,6.65-1.55,8.99-1.08,16.53,2.29,21.22,9.51,8.51,13.08.03,34.01-3.49,41.48,3.32,11.32,1.83,18.54-.75,23.03l2.64,19.46-2.36,2.29c-16.04,15.56-36.42,19.11-51.65,19.11ZM1910.56,429.3c10.03,1.64,35.83,3.84,54.53-12.07l-2.48-18.22,1.91-2.22c1.6-1.86,2.26-6.94-.69-15.6l-.9-2.65,1.3-2.48c3.69-7.05,9.86-23.86,5.33-30.83-4.62-7.1-14.28-2.24-15.37-1.66l-5.42,2.88-3.04-4.94c-.2-.25-1.25-1.5-2.62-1.75l-5.87-1.07.57-5.94c2.9-30.37-.22-53.58-4.77-57.67-.28-.25-.31-.28-.76-.19-9.02,1.83-10.09,28.52-7.39,47.08l7.17,49.37-19.58-45.88c-9.09-21.29-20.84-41.58-25.98-45.04-.83.48-1.19.99-1.47,1.64-4.27,9.9,11.81,49.49,17.1,62.5l3.89,9.58-10.32-.64c-.47-.02-12.64-.51-16.58,9.4-2.03,5.12,8.92,25.71,27.9,47.09l1.34,1.51,2.18,17.81Z"/>
  </g>
  <path d="M1924.99,469.53c-14.92,0-26.04-2.68-28.59-3.35l-21.31-5.61-4.02-32.78c-3.56-4.4-8.07-10.23-12.41-16.55-12.02-17.49-24.67-40.43-15.78-62.78,2.92-7.33,7.1-13.38,12.07-18.24-10.97-31.66-12.14-48.79-5.73-63.63,3.22-7.47,10.05-17.54,24.25-23.05,5.64-2.19,17.88-5.18,31.47,2.5,7.07-5.89,14.5-8.36,19.58-9.39,12.52-2.55,25.14.89,34.62,9.42,12.37,11.13,18.13,29.28,18.66,58.81,9.91,3.3,18.46,9.84,24.47,19.08,12.69,19.52,7.52,43.21,1.87,58.21,1.44,9.45.62,17.29-1.24,23.65l1.3,9.53c1.39,10.23-2.16,20.51-9.57,27.7h0c-22.21,21.55-49.4,26.47-69.62,26.47Z"/>
  <g>
    <path class="cls-2" d="M1873.09,360.48c-5.79,14.56,29.08,53.81,29.08,53.81l2.51,20.46s40.77,10.73,67.31-15.02l-2.54-18.7c2.44-2.83,4.94-9.04.54-21.94,0,0,13.14-24.94,5.03-37.4-8.11-12.47-23.9-3.84-23.9-3.84,0,0-2.45-3.68-6.82-4.48,0,0,6.59-68.9-13.29-64.85-19.89,4.04-12.53,54.39-12.53,54.39,0,0-22.67-53.15-33.23-49.06-10.55,4.1-12.09,16.63,10.87,73.15,0,0-17.23-1.07-23.02,13.48Z"/>
    <g>
      <path d="M1923.13,386.17c-.18.07-.37.14-.56.19-6.52,1.89-20.97-5.77-26.13-8.98-.63-.39-1.44-.19-1.82.44-.38.63-.18,1.46.45,1.85.8.5,19.25,11.89,28.29,9.27.27-.08.52-.17.77-.27,2.1-.86,3.45-2.48,4.03-4.83,2.94-11.94-27.67-34.94-31.17-37.53-.59-.44-1.42-.31-1.85.29-.43.6-.29,1.44.31,1.88.08.06,8.41,6.22,16.27,13.68,9.95,9.44,14.88,16.9,13.87,20.99-.37,1.5-1.18,2.48-2.47,3.01Z"/>
      <path d="M1920.48,410.63c-.71.15-1.17.86-1.01,1.59.15.73.86,1.2,1.57,1.05.05-.01.32-.07.73-.19,1.94-.56,7.18-2.52,9.1-7.65,1.82-4.85.1-10.98-5.11-18.23-.43-.6-1.26-.74-1.85-.3-.59.43-.71,1.27-.28,1.88,4.63,6.45,6.24,11.72,4.77,15.66-1.8,4.83-7.81,6.17-7.91,6.19Z"/>
      <path d="M1921.91,338.93c.68-.2,1.08-.91.91-1.61l-4.51-18c-.18-.72-.9-1.16-1.61-.99-.69.19-1.14.9-.96,1.63l4.51,18c.18.72.9,1.16,1.61.99.02,0,.03,0,.05-.01Z"/>
      <path d="M1944.23,335.1c.72.1,1.39-.4,1.49-1.13.1-.73-.41-1.42-1.13-1.53-.37-.06-9.15-1.23-15.18,10.17-4.41,8.34-5.84,27.78-1.17,37.73,1.68,3.59,4,5.7,6.88,6.28,4.95,1,9.61-.94,13.45-5.62,1.1-1.34,1.98-2.71,2.65-3.9,1.07,3.08,3.17,7.24,7.01,8.68,1.73.65,3.61.68,5.61.1,2.3-.67,4.78-2.14,7.41-4.42.55-.48.61-1.33.14-1.9-.48-.57-1.31-.64-1.87-.16-4.14,3.59-7.64,4.89-10.39,3.86-4.79-1.8-6.24-10.08-6.25-10.17-.1-.6-.58-1.06-1.18-1.12-.59-.06-1.15.28-1.37.84-.01.03-1.31,3.43-3.85,6.49-3.23,3.9-6.89,5.47-10.88,4.67-2.01-.41-3.68-2.01-4.98-4.78-4.25-9.05-2.97-27.56,1.12-35.3,5.1-9.67,12.16-8.84,12.49-8.8Z"/>
      <path d="M1951.95,374.6c.37-.11.69-.38.85-.78,5.89-14.73-.01-34.99-.27-35.84-.21-.71-.95-1.12-1.64-.92h0c-.7.21-1.09.96-.88,1.67.06.2,5.89,20.21.35,34.06-.27.69.05,1.47.73,1.76.29.12.59.13.87.05Z"/>
      <path d="M1944.79,383.99c.21.04.42.03.62-.03.46-.13.83-.52.93-1.03.12-.63,2.82-15.57-2.07-21.43-1.39-1.66-3.21-2.48-5.43-2.43-3.31.07-6.04,3.48-8.08,10.14-1.42,4.62-2.01,9.14-2.03,9.33-.09.74.42,1.42,1.14,1.52.72.1,1.39-.41,1.48-1.14.72-5.56,3.5-17.07,7.57-17.16,1.39-.03,2.49.45,3.34,1.47,3.38,4.04,2.21,15.21,1.48,19.18-.13.73.34,1.44,1.06,1.58Z"/>
      <path d="M1911.41,366.37c1.01-1.59,3.32-1.93,3.37-1.94.72-.09,1.23-.77,1.13-1.5-.1-.74-.77-1.26-1.49-1.17-.14.02-3.54.48-5.23,3.11-1.01,1.57-1.19,3.51-.53,5.77,1.96,6.77,15.36,15.28,15.93,15.64.33.21.72.25,1.07.15.3-.09.58-.29.75-.58.38-.63.18-1.46-.44-1.85-3.64-2.29-13.38-9.3-14.77-14.09-.42-1.46-.35-2.65.21-3.54Z"/>
      <path d="M1969.1,382.07c.21.04.41.02.59-.03.47-.14.84-.53.93-1.06.44-2.67,2.47-16.19-1.34-19.73-.66-.61-1.8-1.25-3.49-.79-7.09,1.9-11.81,16.71-12.33,18.39-.22.71.18,1.46.87,1.69.7.23,1.44-.16,1.66-.87,1.27-4.17,5.64-15.31,10.5-16.61.57-.15.82-.01,1.01.17,2.01,1.87,1.51,11.22.5,17.27-.12.73.36,1.43,1.09,1.56Z"/>
    </g>
  </g>
</svg>